<svg xmlns="http://www.w3.org/2000/svg" viewBox="0 0 1239.03 705.32"><defs><style>.a{fill:#fff;}.b{fill:#d8d8d8;}</style></defs><title>Vestfold IT-Arena Logo Negativ</title><polygon class="a" points="240.87 296.6 240.87 403.3 333.28 456.66 425.68 403.3 425.68 296.6 333.28 243.25 240.87 296.6"/><path class="a" d="M572,242.57c-.27-.67,2.4-2.66,5.19-2.66,2.13,0,4.26.93,5.46,4.13l27,73.1L636.79,244c1.2-3.2,3.2-4.13,5.19-4.13,2.66,0,5.33,2,5.06,2.66l-31.56,81.49c-.93,2.26-2.13,3.33-6,3.33s-5.06-1.07-6-3.33Z"/><path class="a" d="M680.73,261.61c17.84,0,29.56,12.65,29.56,32v.8c0,2.4-.93,2.93-3.59,2.93H657.43c.67,13.58,10.52,23.17,24.1,23.17,12.38,0,18-5.33,21.7-11.32.27-.4,5.06.8,5.06,4.93,0,4.39-9.59,14.11-26.76,14.11-19.31,0-32.75-13.58-32.75-33S662.36,261.61,680.73,261.61Zm20.37,28.23c-.8-12.52-8.52-20.64-20.37-20.64s-21.17,8.52-23,20.64Z"/><path class="a" d="M723.6,310.61c4.26,5.86,11.18,10.25,21.7,10.25s16.38-4.26,16.38-10.65c0-7.59-6.66-9.19-18.64-11.72-9.85-2.13-22.24-4.93-22.24-17.71,0-11.32,9.59-19.17,24.23-19.17,15.45,0,23.43,7.32,23.43,12.12,0,3.33-4.53,4.93-4.79,4.53-3.59-5.46-10-9.32-18.64-9.32-10.39,0-16,4.39-16,10.65,0,6.79,6,8.65,17.71,11.18,10.25,2.26,23.3,5.06,23.3,18.11,0,11.72-9.59,19.31-25,19.31-16.91,0-26.1-8.12-26.1-12.92C718.94,311.68,723.34,310.34,723.6,310.61Z"/><path class="a" d="M788.18,270.93h-5.86c-3.2,0-4.13-1.2-4.13-3.46v-.8c0-2.26.93-3.46,4.13-3.46h5.86V252.16c0-3.2,1.6-4.13,3.86-4.13H793c2.26,0,3.73.93,3.73,4.13v11.05h16.91c3.2,0,4.13,1.2,4.13,3.46v.8c0,2.26-.93,3.46-4.13,3.46H796.7V307c0,9.32,2.4,13.71,9.45,13.71a12.14,12.14,0,0,0,9.85-4.66c.27-.27,2.93.93,2.93,4.26,0,3.59-4.66,7.86-13,7.86-12.38,0-17.71-7.06-17.71-20.24Z"/><path class="a" d="M836.11,270.93h-9.32c-3.2,0-4.13-1.2-4.13-3.46v-.8c0-2.26.93-3.46,4.13-3.46h9.32v-5.86c0-14.51,6.39-22.5,18.64-22.5,8.52,0,12.65,3.59,12.65,7.46,0,3.06-2.26,4.39-2.53,4.13a15.38,15.38,0,0,0-10.12-3.86c-7.19,0-10.25,4.66-10.25,15.18v5.46h12.78c3.2,0,4.13,1.2,4.13,3.46v.8c0,2.26-.93,3.46-4.13,3.46H844.63V323c0,3.2-1.46,4.13-3.73,4.13H840c-2.26,0-3.86-.93-3.86-4.13Z"/><path class="a" d="M900,261.61c18.91,0,32.62,14.11,32.62,33.42S918.93,328.19,900,328.19s-32.75-14.11-32.75-33.42S881,261.61,900,261.61Zm0,59c13.58,0,23.83-10.79,23.83-25.56S913.74,269.2,900,269.2s-24,10.79-24,25.56S886.31,320.6,900,320.6Z"/><path class="a" d="M947,236.85c0-.27,1.33-.93,2.93-.93,2.93,0,5.73,1.46,5.73,8.39V323c0,3.2-1.6,4.13-3.86,4.13h-.93c-2.26,0-3.86-.93-3.86-4.13Z"/><path class="a" d="M1000.42,261.61c11.18,0,19.31,5.33,23,11.18v-36c0-.27,1.33-.93,2.93-.93,2.93,0,5.73,1.46,5.73,8.39V323c0,3.2-1.6,4.13-3.86,4.13h-.93c-2.26,0-3.73-.93-3.73-4.13v-6.92c-5.73,7.72-13.18,12.12-23.7,12.12-16.78,0-30-13-30-33.15S982.84,261.61,1000.42,261.61Zm.4,59c11.58,0,22.24-8.66,22.77-20.37V284.11c-4-9.19-11.32-14.91-22.5-14.91-13.45,0-22.37,10.39-22.37,25.7C978.71,309.81,988,320.6,1000.81,320.6Z"/><path class="a" d="M581.14,379.49c0-2.66,1.33-4.13,3.86-4.13h1.2c2.66,0,4,1.46,4,4.13v79c0,2.8-1.33,4.13-4,4.13H585c-2.53,0-3.86-1.33-3.86-4.13Z"/><path class="a" d="M636.13,384.15h-27c-2.66,0-4.13-1.33-4.13-3.73v-.67c0-2.53,1.46-3.86,4.13-3.86h63.11c2.66,0,4.13,1.33,4.13,3.86v.67c0,2.4-1.46,3.73-4.13,3.73h-27v74.3c0,2.8-1.33,4.13-4,4.13H640c-2.53,0-3.86-1.33-3.86-4.13Z"/><path class="a" d="M676.2,430.35v-.93c0-2.53,1.46-3.6,4.13-3.6h28.49c2.66,0,4.13,1.07,4.13,3.6v.93c0,2.4-1.46,3.46-4.13,3.46H680.33C677.67,433.81,676.2,432.74,676.2,430.35Z"/><path class="a" d="M754,378.42c.93-2.26,2.53-3.33,6.79-3.33s5.86,1.06,6.79,3.33l31.56,81.49c.27.67-2.4,2.66-5.19,2.66-2.13,0-4.26-.93-5.46-4.13L779,433.94H742l-9.32,24.5c-1.2,3.2-3.2,4.13-5.19,4.13-2.66,0-5.33-2-5.06-2.66ZM776.06,426l-15.58-40.48L744.91,426Z"/><path class="a" d="M809.62,399.06c0-.27,1.33-.93,2.93-.93,2.93,0,5.59,1.46,5.59,8.39v3.73c2.66-8.65,8.25-13.18,16.78-13.18,5.86,0,9.19,2.4,9.19,6.52,0,3.2-2.13,4.79-2.4,4.53a11,11,0,0,0-7.72-2.66c-11.32,0-15.71,11.85-15.71,28.09v24.9c0,3.2-1.6,4.13-3.86,4.13h-.93c-2.26,0-3.86-.93-3.86-4.13Z"/><path class="a" d="M881.65,397.06c17.84,0,29.56,12.65,29.56,32v.8c0,2.4-.93,2.93-3.59,2.93H858.35c.67,13.58,10.52,23.17,24.1,23.17,12.38,0,18-5.33,21.7-11.32.27-.4,5.06.8,5.06,4.93,0,4.39-9.59,14.11-26.76,14.11-19.31,0-32.75-13.58-32.75-33S863.28,397.06,881.65,397.06ZM902,425.29c-.8-12.52-8.52-20.64-20.37-20.64s-21.17,8.52-23,20.64Z"/><path class="a" d="M924.66,399.06c0-.27,1.33-.93,2.93-.93,2.93,0,5.59,1.46,5.59,8.39v2.13a24.89,24.89,0,0,1,21.57-11.58c16.78,0,25.17,11.18,25.17,28v33.42c0,3.2-1.6,4.13-3.86,4.13h-.93c-2.26,0-3.86-.93-3.86-4.13V425.55c0-12.65-6.26-20.37-17-20.37-9.85,0-17.18,5.46-20.9,13.45v39.81c0,3.2-1.6,4.13-3.86,4.13h-.93c-2.26,0-3.86-.93-3.86-4.13Z"/><path class="a" d="M1037.3,424.22h1.33V422c0-10.92-6.39-16.91-17.84-16.91-10.25,0-16.78,5.19-20.24,11.72,0,.13-4.93-.4-4.93-5.06s9.05-14.65,25.83-14.65c16.11,0,25.7,9.32,25.7,24.63v39.94c0,.27-1.33.93-2.93.93-2.93,0-5.46-1.46-5.46-8.39v-2.4c-5.06,7.32-13.58,11.72-23.7,11.72-13.85,0-21.84-7.06-21.84-17.71C993.23,431,1008,424.89,1037.3,424.22Zm-21.44,32.09c13,0,22.77-8.12,22.77-19.44V431l-3.73.13c-21.7.8-32.89,4.66-32.89,14.65C1002,452.18,1007.21,456.31,1015.86,456.31Z"/><polygon class="a" points="425.68 296.6 333.28 243.25 240.87 296.6 333.27 349.95 425.68 296.6"/><polygon class="a" points="333.27 349.95 333.28 456.66 425.68 403.3 425.68 296.6 333.27 349.95"/><polygon class="b" points="240.87 403.3 333.28 456.66 333.27 349.95 240.87 296.6 240.87 403.3"/><circle class="a" cx="333.28" cy="172.49" r="25.5"/><circle class="a" cx="179.59" cy="260.69" r="25.5"/><circle class="a" cx="179.59" cy="440.28" r="25.5"/><circle class="a" cx="333.27" cy="527.41" r="25.5"/><circle class="a" cx="486.96" cy="440.28" r="25.5"/><circle class="a" cx="486.96" cy="260.69" r="25.5"/></svg>